HIERARCHY
ROOT root
{
	OFFSET	0	13.1	24.9
	CHANNELS 6  Xposition Yposition Zposition Xrotation Yrotation Zrotation
	JOINT spine_1
	{
		OFFSET	0	9.99999	0
		CHANNELS 3  Xrotation Yrotation Zrotation
		JOINT spine_2
		{
			OFFSET	0	112	-10
			CHANNELS 3  Xrotation Yrotation Zrotation
			JOINT spine_3
			{
				OFFSET	0	206.5	19.3
				CHANNELS 3  Xrotation Yrotation Zrotation
				JOINT spine_4
				{
					OFFSET	0	110.4	14.6
					CHANNELS 3  Xrotation Yrotation Zrotation
					JOINT neck_1
					{
						OFFSET	0	71.8	-50.3
						CHANNELS 3  Xrotation Yrotation Zrotation
						JOINT neck_2
						{
							OFFSET	0	86.2	-25.8
							CHANNELS 3  Xrotation Yrotation Zrotation
							JOINT head_ee
							{
								OFFSET	0	179.8	-8.7
								CHANNELS 3  Xrotation Yrotation Zrotation
								End Site
								{
									OFFSET	1	0	0
								}
							}
						}
					}
					JOINT left_clavicle
					{
						OFFSET	-43.2	22.4	-70.8
						CHANNELS 3  Xrotation Yrotation Zrotation
						JOINT left_shoulder
						{
							OFFSET	-93.9	-5.79999	48.7
							CHANNELS 3  Xrotation Yrotation Zrotation
							JOINT left_elbow
							{
								OFFSET	-291.4	-30.8	15.2
								CHANNELS 3  Xrotation Yrotation Zrotation
								JOINT left_lowarm_twist
								{
									OFFSET	-110.7	-3.89999	13.6
									CHANNELS 3  Xrotation Yrotation Zrotation
									JOINT left_hand
									{
										OFFSET	-110.7	-3.89999	13.6
										CHANNELS 3  Xrotation Yrotation Zrotation
										JOINT left_ee
										{
											OFFSET	-80.8	-5.10001	12.1
											CHANNELS 3  Xrotation Yrotation Zrotation
											End Site
											{
												OFFSET	1	0	0
											}
										}
									}
								}
							}
						}
					}
					JOINT right_clavicle
					{
						OFFSET	43.2	22.4	-70.8
						CHANNELS 3  Xrotation Yrotation Zrotation
						JOINT right_shoulder
						{
							OFFSET	93.9	-5.79999	48.7
							CHANNELS 3  Xrotation Yrotation Zrotation
							JOINT right_elbow
							{
								OFFSET	291.4	-30.8	15.2
								CHANNELS 3  Xrotation Yrotation Zrotation
								JOINT right_lowarm_twist
								{
									OFFSET	110.7	-3.89999	13.6
									CHANNELS 3  Xrotation Yrotation Zrotation
									JOINT right_hand
									{
										OFFSET	110.7	-3.89999	13.6
										CHANNELS 3  Xrotation Yrotation Zrotation
										JOINT right_ee
										{
											OFFSET	80.8	-5.10001	12.1
											CHANNELS 3  Xrotation Yrotation Zrotation
											End Site
											{
												OFFSET	1	0	0
											}
										}
									}
								}
							}
						}
					}
				}
			}
		}
	}
	JOINT left_hip
	{
		OFFSET	-82.8	-127.5	0.300001
		CHANNELS 3  Xrotation Yrotation Zrotation
		JOINT left_knee
		{
			OFFSET	-28.2	-396.7	2.2
			CHANNELS 3  Xrotation Yrotation Zrotation
			JOINT left_ankle
			{
				OFFSET	-11.7	-411.3	35.4
				CHANNELS 3  Xrotation Yrotation Zrotation
				JOINT left_toes
				{
					OFFSET	0	-60	-88.6
					CHANNELS 3  Xrotation Yrotation Zrotation
					JOINT left_foot_ee
					{
						OFFSET	-22.5	-16.5	-42.2
						CHANNELS 3  Xrotation Yrotation Zrotation
						End Site
						{
							OFFSET	1	0	0
						}
					}
				}
			}
		}
	}
	JOINT right_hip
	{
		OFFSET	82.8	-127.5	0.300001
		CHANNELS 3  Xrotation Yrotation Zrotation
		JOINT right_knee
		{
			OFFSET	28.2	-396.7	2.2
			CHANNELS 3  Xrotation Yrotation Zrotation
			JOINT right_ankle
			{
				OFFSET	11.7	-411.3	35.4
				CHANNELS 3  Xrotation Yrotation Zrotation
				JOINT right_toes
				{
					OFFSET	0	-60	-88.6
					CHANNELS 3  Xrotation Yrotation Zrotation
					JOINT right_foot_ee
					{
						OFFSET	22.5	-16.5	-42.2
						CHANNELS 3  Xrotation Yrotation Zrotation
						End Site
						{
							OFFSET	1	0	0
						}
					}
				}
			}
		}
	}
}
MOTION
Frames: 12
Frame Time: 0.02
1353.39 726.965 -664.74 164.385 -61.6103 170.397 -1.22127 0.0845165 -0.632008 -1.22106 0.124561 -0.62535 -1.22231 0.265649 -0.579664 -1.22274 0.17077 -0.614342 -21.4535 7.26472 12.3082 -21.1189 8.09748 14.5619 -0.0 0.0 -0.0 5.07409 16.6611 9.91456 -5.33334 -39.0648 53.5124 0.886527 -23.7089 0.186088 -71.6017 -6.75058 5.31376 -2.31197 19.2718 -6.05402 -0.0 0.0 -0.0 9.35694 19.8168 -17.9815 -22.8899 15.5184 -62.5389 0.644111 17.6966 -0.100271 -31.5968 2.10499 -3.39418 -1.99201 8.0157 17.1013 0.0 0.0 0.0 -11.6185 25.5956 0.486639 8.20594 -0.42375 -1.18623 22.611 -3.26537 -3.09734 -13.6844 0.0 0.0 -0.0 0.0 -0.0 7.36379 25.6216 -9.45504 -22.1785 -0.263401 -3.37206 12.7279 -27.915 1.90875 -10.5929 0.0 0.0 0.0 0.0 0.0 
1364.07 727.022 -662.069 165.265 -60.9659 171.705 -1.29707 -0.103426 -0.838874 -1.29668 -0.0498385 -0.843755 -1.29562 0.147476 -0.832261 -1.29659 0.0141904 -0.845106 -19.0562 8.35574 11.6655 -18.7902 9.99397 14.1408 -0.0 0.0 -0.0 5.20933 19.3715 10.0581 -4.46405 -39.6982 52.5902 0.952279 -25.2543 0.213338 -72.985 -6.92736 5.31905 -3.26584 22.5982 -9.93472 -0.0 0.0 -0.0 8.82265 18.2875 -16.9039 -21.4025 14.3141 -63.2526 0.432817 12.1015 -0.0458787 -34.0172 2.33852 -3.59871 -2.45021 9.62551 21.0913 0.0 0.0 0.0 -10.5922 26.5152 -0.699085 5.83479 -0.28386 -0.849743 24.6479 -3.92096 -3.34677 -14.6574 0.0 0.0 -0.0 0.0 -0.0 9.00516 25.9044 -10.5011 -22.2402 -0.262304 -3.38146 10.0812 -27.4863 1.52056 -8.75623 0.0 0.0 0.0 0.0 0.0 
1372.52 725.444 -658.564 165.834 -60.0991 172.628 -1.29873 -0.190685 -0.946574 -1.29824 -0.130069 -0.956788 -1.2956 0.095683 -0.960836 -1.29689 -0.0572567 -0.963889 -18.3756 9.00088 12.2813 -18.0785 10.7558 14.8743 -0.0 0.0 -0.0 5.15688 21.384 9.91315 -3.37018 -40.6451 51.9832 1.03757 -27.2016 0.251036 -74.9332 -7.17634 5.31922 -3.94387 23.6612 -13.2965 -0.0 0.0 -0.0 8.3364 17.4682 -15.887 -19.8763 14.1882 -64.2347 0.213606 6.04037 -0.0112701 -35.811 2.51708 -3.74386 -3.34148 5.78556 25.8546 0.0 0.0 0.0 -10.0487 28.1548 -1.28051 5.1477 -0.245946 -0.751208 26.4298 -2.01773 -3.53353 -14.6926 0.0 0.0 -0.0 0.0 -0.0 10.5724 27.874 -11.9626 -23.5287 -0.237077 -3.57757 5.94001 -27.2346 0.905292 -7.27576 0.0 0.0 0.0 0.0 0.0 
1379.72 727.525 -655.772 165.615 -58.9943 172.767 -1.47594 -0.27256 -1.09889 -1.47529 -0.202087 -1.114 -1.47067 0.0655888 -1.13028 -1.47243 -0.113729 -1.12645 -17.3007 9.9078 11.9788 -17.0525 12.4139 14.7994 -0.0 0.0 -0.0 5.02734 22.1562 9.69824 -2.48023 -41.1303 51.3959 1.09675 -28.5144 0.278694 -75.2971 -7.22282 5.3183 -4.60961 26.2298 -15.5124 -0.0 0.0 -0.0 7.98017 17.4899 -15.1049 -19.087 13.1157 -64.7579 0.205286 5.80675 -0.0104114 -36.8823 2.62586 -3.82787 -3.57244 5.05418 27.2337 0.0 0.0 0.0 -9.80547 29.3157 -2.13003 4.12335 -0.191628 -0.603494 27.934 -1.78245 -3.7003 -15.5548 0.0 0.0 -0.0 0.0 -0.0 12.4765 29.1703 -13.3472 -23.6605 -0.234247 -3.59761 3.30358 -26.5726 0.504932 -6.16371 0.0 0.0 0.0 0.0 0.0 
1387.01 725.431 -657.442 165.964 -58.3683 172.702 -1.49983 -0.295888 -1.09104 -1.49919 -0.225867 -1.10765 -1.49412 0.0414401 -1.12968 -1.49588 -0.137481 -1.12205 -17.7864 9.94936 14.5403 -17.3194 11.206 17.2283 -0.0 0.0 -0.0 5.145 23.6564 9.80814 -1.22676 -41.4509 50.7735 1.22032 -31.1522 0.340182 -76.9719 -7.43658 5.31026 -4.20051 23.8844 -14.6756 -0.0 0.0 -0.0 7.52004 16.3326 -14.1759 -19.3407 13.2418 -64.3713 0.220844 6.24347 -0.0120445 -38.4916 2.79219 -3.95023 -4.25872 0.0867927 29.8573 0.0 0.0 0.0 -9.37209 29.4237 -2.78169 2.35319 -0.104032 -0.346076 29.865 -2.53341 -3.91829 -15.3529 0.0 0.0 -0.0 0.0 -0.0 14.9996 30.612 -14.2794 -26.4089 -0.164777 -4.01363 6.62156 -25.7888 0.998874 -5.90307 0.0 0.0 0.0 0.0 0.0 
1390.56 721.21 -658.192 165.782 -57.5766 173.131 -1.714 -0.29764 -1.3993 -1.71293 -0.208004 -1.4154 -1.70664 0.136604 -1.42407 -1.70946 -0.0899914 -1.42777 -18.0071 9.73096 15.3853 -17.4517 10.3853 17.9502 -0.0 0.0 -0.0 5.43095 23.3917 10.2216 -0.855199 -41.6309 50.0884 1.3118 -33.0153 0.388777 -76.328 -7.35444 5.3141 -4.57223 26.0726 -15.4027 -0.0 0.0 -0.0 7.09955 16.7281 -13.2368 -18.9852 12.2341 -64.5426 0.246052 6.94948 -0.0149403 -37.7311 2.71316 -3.89299 -4.57685 -1.05983 31.6798 0.0 0.0 0.0 -11.0622 31.7413 -1.83338 5.59379 -0.270427 -0.815233 30.8415 -0.923404 -4.00677 -16.4182 0.0 0.0 -0.0 0.0 -0.0 18.716 30.7097 -15.7575 -21.9503 -0.267371 -3.33727 3.00219 -24.8753 0.454951 -6.99725 0.0 0.0 0.0 0.0 0.0 
1394.01 722.27 -663.036 165.304 -57.1054 172.56 -1.82952 -0.153519 -1.5236 -1.82823 -0.0562692 -1.53028 -1.8255 0.314582 -1.49866 -1.82863 0.0739776 -1.52953 -17.7186 9.03104 16.2668 -17.0444 8.45698 18.4735 -0.0 0.0 -0.0 5.97881 21.639 11.106 -0.790746 -42.3874 49.3333 1.36352 -34.0351 0.417344 -76.7614 -7.40974 5.31162 -4.32071 26.609 -13.5872 -0.0 0.0 -0.0 6.96217 17.2796 -12.9008 -18.535 10.3037 -64.5811 0.237287 6.70424 -0.0138985 -36.6529 2.60244 -3.81006 -5.0045 -4.24842 33.1002 0.0 0.0 0.0 -12.1837 32.0349 -0.494917 6.50084 -0.321743 -0.944831 32.0694 -0.328857 -4.12952 -18.1656 0.0 0.0 -0.0 0.0 -0.0 22.9882 30.7704 -17.3933 -17.5967 -0.316504 -2.67123 9.43285 -22.7179 1.3894 -10.9971 0.0 0.0 0.0 0.0 0.0 
1399.29 720.018 -666.206 164.683 -56.699 172.07 -1.97239 -0.0404618 -1.6282 -1.97092 0.0632127 -1.62747 -1.97143 0.458019 -1.56299 -1.97478 0.20546 -1.61569 -17.4072 8.60781 15.8251 -16.7605 7.78726 17.8849 -0.0 0.0 -0.0 6.39827 20.3519 11.8129 -0.604814 -42.6369 47.7336 1.44847 -35.6585 0.465892 -77.0754 -7.44978 5.30956 -3.95238 26.8515 -11.3347 -0.0 0.0 -0.0 6.70012 17.3261 -12.3292 -18.4628 9.70149 -64.5541 0.250821 7.08284 -0.0155229 -36.0433 2.54053 -3.76225 -5.29685 -5.54612 34.5862 0.0 0.0 0.0 -13.0099 32.2092 0.0926465 6.44256 -0.318383 -0.936528 32.0276 0.232607 -4.12104 -18.8995 0.0 0.0 -0.0 0.0 -0.0 26.6749 31.2684 -19.2045 -15.3539 -0.322034 -2.32719 13.053 -20.5449 1.88209 -13.5325 0.0 0.0 0.0 0.0 0.0 
1401.09 715.46 -664.203 165.512 -55.8003 172.702 -1.91171 0.0578928 -1.59632 -1.91031 0.15934 -1.58941 -1.91365 0.540478 -1.50318 -1.91668 0.296327 -1.56965 -16.9231 9.05528 15.6133 -16.3053 8.62115 17.7989 -0.0 0.0 -0.0 6.64996 19.2167 12.276 -1.16607 -41.8057 44.9281 1.59471 -38.3049 0.553885 -77.6431 -7.52214 5.30527 -4.0416 27.6145 -11.3506 -0.0 0.0 -0.0 6.46215 17.9542 -11.7674 -18.6835 8.95996 -65.6609 0.331626 9.3293 -0.0270588 -37.0023 2.63815 -3.83716 -5.50871 -7.53235 34.9167 0.0 0.0 0.0 -13.0422 31.3357 -0.211851 6.28242 -0.309197 -0.913695 34.4781 -0.663616 -4.37368 -19.4531 0.0 0.0 -0.0 0.0 -0.0 29.0695 31.9337 -19.3827 -11.8172 -0.303394 -1.78494 15.7307 -14.6524 2.2053 -15.8807 0.0 0.0 0.0 0.0 0.0 
1408.8 714.916 -665.55 165.242 -56.0582 172.833 -1.92748 -0.0253167 -1.80326 -1.92568 0.0894618 -1.80122 -1.92696 0.524527 -1.7255 -1.93103 0.245481 -1.78666 -17.3764 8.49436 15.8446 -16.7242 7.54766 17.8601 -0.0 0.0 -0.0 7.1361 18.5752 13.0837 0.413351 -40.9149 45.1107 1.62206 -38.7796 0.570927 -78.186 -7.59128 5.30049 -4.06928 28.0794 -11.2065 -0.0 0.0 -0.0 6.33534 18.2938 -11.4668 -18.3294 8.57988 -65.6874 0.298584 8.41378 -0.0219628 -35.6737 2.50325 -3.73295 -5.76139 -9.56024 35.472 0.0 0.0 0.0 -13.4378 31.3376 -0.378814 5.85777 -0.285148 -0.853031 36.3653 0.094738 -4.5485 -19.6644 0.0 0.0 -0.0 0.0 -0.0 30.6582 32.2863 -21.0233 -11.0664 -0.295132 -1.67004 17.4378 -13.8013 2.42353 -15.955 0.0 0.0 0.0 0.0 0.0 
1414.31 714.673 -666.11 164.895 -56.1711 172.694 -2.01154 -0.100215 -1.81262 -2.00971 0.0153104 -1.81532 -2.0085 0.458498 -1.75655 -2.01276 0.175377 -1.8069 -17.4616 8.51827 15.7483 -16.8202 7.67394 17.7875 -0.0 0.0 -0.0 7.59159 18.1791 13.8402 1.07705 -40.3066 44.6428 1.73348 -40.6496 0.642128 -78.7044 -7.65725 5.29531 -4.12829 28.7343 -11.1099 -0.0 0.0 -0.0 6.29622 18.4458 -11.3702 -18.3797 8.34316 -65.8946 0.326569 9.18948 -0.026245 -35.5719 2.49302 -3.72484 -5.8794 -10.4428 35.7528 0.0 0.0 0.0 -14.007 30.2034 -0.35524 4.90562 -0.23287 -0.716385 36.631 -0.378312 -4.57697 -19.8411 0.0 0.0 -0.0 0.0 -0.0 32.5054 32.7089 -22.0213 -9.93103 -0.279781 -1.49651 18.0988 -11.1335 2.49792 -16.4016 0.0 0.0 0.0 0.0 0.0 
1420.75 715.531 -665.128 164.478 -56.848 172.718 -2.18871 -0.0762188 -1.86257 -2.18678 0.0424352 -1.86365 -2.18633 0.502207 -1.79523 -2.19076 0.212433 -1.85199 -17.7874 8.48182 15.8319 -17.14 7.65734 17.8826 -0.0 0.0 -0.0 8.42547 18.4653 15.1461 2.26819 -38.7432 44.213 1.93296 -43.7525 0.776177 -79.1586 -7.715 5.29028 -4.12295 28.8442 -11.0092 -0.0 0.0 -0.0 6.30077 18.5313 -11.3734 -18.5959 8.22695 -66.6122 0.357718 10.0489 -0.0314502 -35.7246 2.50837 -3.73699 -5.96561 -11.1046 35.9341 0.0 0.0 0.0 -14.5665 28.9835 -0.69498 5.20535 -0.249081 -0.759493 35.8223 -0.843121 -4.50474 -20.0767 0.0 0.0 -0.0 0.0 -0.0 33.9975 32.7899 -22.2425 -9.08416 -0.266092 -1.36729 18.1705 -8.00394 2.50159 -16.6797 0.0 0.0 0.0 0.0 0.0 
